<svg id="Layer_1" data-name="Layer 1" xmlns="http://www.w3.org/2000/svg" viewBox="0 0 37.69 52.46"><defs><style>.cls-1{fill:#030303;}</style></defs><path class="cls-1" d="M15.74,21.52c.07-.15,0-.2-.11-.24a5.41,5.41,0,0,0-.58-.12H15a.81.81,0,0,0-.23.69,1.29,1.29,0,0,0,.36.85,1,1,0,0,1,.08-.25,2,2,0,0,1,.34-.63A2.86,2.86,0,0,0,15.74,21.52Z"/><path class="cls-1" d="M18.2,21.6V20.22l-.21.29h-.06l-1.26.63a6.74,6.74,0,0,1,.75.17A8.21,8.21,0,0,1,18.2,21.6Z"/><path class="cls-1" d="M18.33,25.17v-.63a12.35,12.35,0,0,0,0-1.49.47.47,0,0,0-.25-.42.68.68,0,0,1-.12-.12h.27s0-.08,0-.09a2.35,2.35,0,0,0-.3-.33,2.76,2.76,0,0,0-.65-.36c-.25-.09-.53-.11-.79-.18a.26.26,0,0,0-.3.11,8.73,8.73,0,0,0-.55.93.57.57,0,0,0-.06.49,1,1,0,0,0,.32.45,7.25,7.25,0,0,0,.75.47,8.22,8.22,0,0,1,1.71,1.14Z"/><path class="cls-1" d="M10.69,30.27v.15a1.23,1.23,0,0,0,.62.61c0-.39,0-.74.07-1.15C11.05,29.93,10.81,30,10.69,30.27Z"/><path class="cls-1" d="M16.24,28.88a3.38,3.38,0,0,0,.44.18.86.86,0,0,0,.93-.24h0l-.45.1c-.18,0-.2,0-.18-.16s0-.22,0-.33-.08-.18-.15-.15-.12,0-.12-.11v-.23l-.3.28a.78.78,0,0,0-.25.53A.13.13,0,0,0,16.24,28.88Z"/><path class="cls-1" d="M17.1,27.62a.11.11,0,0,0,0-.08V27.3h0c0,.07-.09.14-.13.22s0,.07,0,.08A.2.2,0,0,0,17.1,27.62Z"/><path class="cls-1" d="M20,11.24l.29-.11.06,0,.18-.29h-.07a.28.28,0,0,1-.28,0,.38.38,0,0,0-.31,0,.34.34,0,0,0,0,.08s.06.19.09.28S19.9,11.29,20,11.24Z"/><path class="cls-1" d="M20,13.39v-.24h0a1.83,1.83,0,0,0-.16.89c.09,0,.19,0,.23,0a3.73,3.73,0,0,0,.25-.39H20A.44.44,0,0,1,20,13.39Z"/><path class="cls-1" d="M13.36,27.42c0-.1.08-.1.15,0l.09.13c.05,0,.11-.08.17-.08a.49.49,0,0,1,.17.06h0l-.19-.12c-.08-.06-.23-.06-.23-.22h0l-.17,0-.07.5h0A2.23,2.23,0,0,1,13.36,27.42Z"/><path class="cls-1" d="M24.18,22.12a.28.28,0,0,0,.08-.11,1.8,1.8,0,0,1,.07-.35H24l-.06-.15h0a4.13,4.13,0,0,0-.11.86l.2-.16Z"/><path class="cls-1" d="M16.6,12.58a.24.24,0,0,0,.18.26v-.58A.27.27,0,0,0,16.6,12.58Z"/><path class="cls-1" d="M20.24,11.91l0-.6h-.13c-.36.1-.39.13-.45.51a.49.49,0,0,0,0,.17A.6.6,0,0,1,20.24,11.91Z"/><path class="cls-1" d="M14.1,21.73a.13.13,0,0,0-.07.09.3.3,0,0,0,.15.38l.1.08.2.15h0c-.06-.23-.12-.46-.19-.7Z"/><path class="cls-1" d="M18.13,31.62a.81.81,0,0,1-.33-.11,3.43,3.43,0,0,1-.44-.19.28.28,0,0,1-.15-.26l.27,0V31l-.07-.14h.16l-.12-.3c0-.11,0-.12.09-.11h.31l-.07-.06h0l0-.21.36,0c0-.13-.12-.24-.08-.4l.29.19V28.73l-.08.07a1.75,1.75,0,0,1-.65.56,1,1,0,0,1-.8.16,4.11,4.11,0,0,1-.68-.21c-.22-.09-.43-.22-.66-.31a2.53,2.53,0,0,0-.36-.12c-.33-.06-.66-.12-1-.2-.16,0-.16-.07-.08-.22h0c0,.06.07.06.17,0a1.16,1.16,0,0,0-1.56.39l.12.09h0a.31.31,0,0,1-.13.06,1.08,1.08,0,0,0-.35,0c-.11.05-.29.05-.32.23h0a.8.8,0,0,0-.27.48A6,6,0,0,0,11.62,31a.29.29,0,0,0,.15.23,3.13,3.13,0,0,0,.36.19,7.55,7.55,0,0,0,1.79.49c.75.12,1.45.21,2.18.31.29,0,.58.09.87.16a5.07,5.07,0,0,1,1.18.49l.22.09V31.89A.31.31,0,0,0,18.13,31.62Z"/><path class="cls-1" d="M20.28,32.71a.5.5,0,0,0,.08.2c.08.1.17.18.25.28a1.78,1.78,0,0,0,.21.27s.13,0,.2.06a.29.29,0,0,0,0-.13,1.41,1.41,0,0,0,0-.29l.25.19a2.24,2.24,0,0,1,.08-.39h0l.21.32c.07-.18.21-.33.15-.53s-.12-.4-.2-.61c0,0-.08-.1-.13-.14s-.2-.1-.29-.17l-.34-.29-.16.18A1.21,1.21,0,0,0,20.28,32.71Z"/><path class="cls-1" d="M21.26,36.08l.16,0a2.35,2.35,0,0,1,.7.37l.29.19-.24-.35a2.61,2.61,0,0,0-.23-.24.23.23,0,0,0-.12-.1A.7.7,0,0,0,21.26,36.08Z"/><path class="cls-1" d="M26.42,26.31l-.32-.15a2.65,2.65,0,0,1-.06.69l.46-.26a.4.4,0,0,0-.05-.23C26.4,26.28,26.43,26.31,26.42,26.31Z"/><path class="cls-1" d="M23.06,36.67a.11.11,0,0,0,.11,0,4,4,0,0,0,.37-.25.16.16,0,0,0,0-.22h0a1.56,1.56,0,0,1-.14-.33c0-.15,0-.22-.12-.23a1.85,1.85,0,0,1-.45-.21c-.19-.12-.22-.11-.34.08a.41.41,0,0,0-.05.09.35.35,0,0,0,.05.48Z"/><path class="cls-1" d="M18.26,13.18h-.38c.15-.13.07-.21,0-.29l-.12-.15H18l-.11-.27h0l.54.35h0c0-.17-.08-.34-.11-.51a.26.26,0,0,0-.18-.2l-.62-.22a.54.54,0,0,1-.16-.1c-.09-.07-.11-.07-.15,0a2.42,2.42,0,0,0-.16,1.1,1.29,1.29,0,0,0,.14.51c.19.33.42.63.64,1l.08.09c0-.1,0-.17.12-.17a.77.77,0,0,1-.05-.42l.23.12h.1a1.22,1.22,0,0,1,.07-.17l.08-.11h0a3.18,3.18,0,0,0,.06.43h.05a2.09,2.09,0,0,0-.07-.66.28.28,0,0,0-.24-.32Z"/><path class="cls-1" d="M25.9,33c-.29,0-.31,0-.46.19C25.68,33.25,25.87,33.17,25.9,33Z"/><path class="cls-1" d="M23.08,33.16v-.31a.91.91,0,0,0-.45.35l.33,0C23.05,33.25,23.08,33.22,23.08,33.16Z"/><path class="cls-1" d="M20,32.1a.29.29,0,0,0,.06.4C20,32.35,20.06,32.23,20,32.1Z"/><path class="cls-1" d="M20.29,34.35c-.08-.21-.14-.43-.21-.65.22,0,.34.15.54.22a1.48,1.48,0,0,0-.12-.29c-.28-.29-.57-.56-.86-.85l-.08,0h0c.05,1.21.24,2.42.29,3.65a2.57,2.57,0,0,1,.8-.54.27.27,0,0,0,.14-.19,2.45,2.45,0,0,1,.09-.42,4,4,0,0,1-1.07-.84C19.94,34.32,20.12,34.38,20.29,34.35Z"/><path class="cls-1" d="M23.32,33.22l.06.15.06-.09c0-.11.1-.21.24-.24V32.5l-.17.06a.33.33,0,0,0-.23.4A1.09,1.09,0,0,1,23.32,33.22Z"/><path class="cls-1" d="M18.84,2C9.19,2,1.34,13,1.34,26.44s7.85,24.4,17.5,24.4,17.5-11,17.5-24.4S28.48,2,18.84,2Zm11.39,23c.08,0,.09.09,0,.16a1.18,1.18,0,0,1-.22.17l.28.1-.15.11a5.34,5.34,0,0,1-1.22.48,6.47,6.47,0,0,0-2.51,1.09,7.23,7.23,0,0,1-2.73,1.18c-.38.09-.75.16-1.14.24a6.32,6.32,0,0,0-1.35.46c-.21.1-.43.22-.64.34a1,1,0,0,0-.22.19c-.14.15-.12.27.07.39v-.24l.15.08s.07.1.11.14l.29-.37.13.3c.05-.12.1-.25.24-.3l.11.17.08-.23.07.15.08-.24.28.22a.79.79,0,0,1,.12-.42l.21.34.15-.19.44.47.3-.26.11.35.33-.23,0,.2.18-.1V30l.54-.19a.94.94,0,0,0,0,.16c0,.08.05.1.11.06a.57.57,0,0,1,.22,0v.16l.23-.21.05.44c.23,0,.42-.27.68-.18l-.09.2.21,0h.09c.17,0,.2,0,.14.18v.06h.32l-.13.14h.3c.2,0,.25,0,.23.21,0,.06-.05.12-.06.19s0,.08,0,.12l.09-.06.19-.25h0v.2c0,.07.05.1.12.07l.2-.09a.3.3,0,0,1-.09.3.33.33,0,0,0-.09.34.49.49,0,0,1,0,.17l.19,0a.24.24,0,0,1,.09.08.1.1,0,0,1-.07.09l-.29.18-.4.3a2.53,2.53,0,0,1-.27.18c-.09.06-.12.1-.19.15h.27l-.08.18h.45l-.12.41h.36c.23,0,.25,0,.19.25L27.2,34l.2-.13h.1v.08c0,.06-.07.11-.11.18h.33a1.11,1.11,0,0,1-.49.75h0l.46,0h0l-.3.19a3.37,3.37,0,0,1-1.34.44l-.39.1.13.11a.66.66,0,0,1-.17.12c-.28.1-.57.22-.87.3a2.68,2.68,0,0,0-.75.39,6.2,6.2,0,0,1-.69.44,1.24,1.24,0,0,1-.8.12,2.23,2.23,0,0,1-.51-.19c-.24-.09-.47-.21-.75-.3a1.61,1.61,0,0,0-.38-.08.49.49,0,0,0-.44.17,2.22,2.22,0,0,0-.52,1,11.78,11.78,0,0,0-.21,1.16,19.64,19.64,0,0,0-.14,2.87c0,.43.05.86.08,1.29v1.48c0,.08,0,.11.1.1h.82a2.73,2.73,0,0,1,1.17,0h.09a.67.67,0,0,1,.62.32.86.86,0,0,0,.33.23,1.44,1.44,0,0,0,.82.1c.38,0,.75.08,1.15.07a8.37,8.37,0,0,1,3.05.52,11.73,11.73,0,0,1-9.3,3.75A11.56,11.56,0,0,1,10,45.72h0a1,1,0,0,0,.2-.15c.08-.09.14-.18.22-.26a1.13,1.13,0,0,1,.21-.12h0c.12-.11.26-.07.4-.08h.57a1.36,1.36,0,0,0,.82-.44.62.62,0,0,1,.19-.12.79.79,0,0,1,.22,0,5.08,5.08,0,0,0,.75-.12,3.14,3.14,0,0,1,.75,0,1.06,1.06,0,0,0,.5,0,2,2,0,0,1,.49-.05l.16,0a2.87,2.87,0,0,1,.41,0,.51.51,0,0,0,.29-.08.91.91,0,0,1,.46-.13h.83l.36.18.15,0h.1c.23,0,.25,0,.25-.26V42a16.13,16.13,0,0,1,.13-2.08,13.82,13.82,0,0,0,.11-2c0-.56,0-1.13,0-1.69a1.46,1.46,0,0,0-.17-.68.52.52,0,0,0-.37-.32.21.21,0,0,1-.12,0,.17.17,0,0,1,0-.1A.11.11,0,0,1,18,35h.49a2.84,2.84,0,0,0-.07-.75.51.51,0,0,0,0-.24.55.55,0,0,0-.29-.42A4.33,4.33,0,0,0,16.42,33c-.62-.12-1.24-.23-1.87-.33a10.79,10.79,0,0,1-1.94-.48,11.37,11.37,0,0,1-1.11-.54,5.33,5.33,0,0,0-1.14-.52c-.35-.09-.69-.22-1-.32a.65.65,0,0,0-.39,0l-.25,0a.09.09,0,0,1-.08-.07H8.24a.4.4,0,0,1-.15,0,.36.36,0,0,1,.08-.12,1,1,0,0,1,.2-.15A2.23,2.23,0,0,1,7.62,30l.08-.08c-.06-.11-.33-.15-.09-.36l-.21-.2c-.08-.08-.06-.11,0-.13l.19-.05L7.52,29a.81.81,0,0,1-.1-.18c0-.09,0-.13.1-.13h.25l-.06-.16c0-.11,0-.12.08-.14h.15l-.12-.26h.33c0-.06-.05-.12-.06-.17a.28.28,0,0,1,0-.13h.13l.21.06v-.21c0-.11.05-.12.14-.06l.2.17.06-.15.16.06v-.15h.13a1,1,0,0,1,0-.75l.26.33a.33.33,0,0,1,0-.14s0-.09.06-.1.07,0,.1,0l.08.09.07-.23c0-.12.07-.13.18,0l.19.14a2.2,2.2,0,0,1,.17-.25l.2.12.09-.18.13.12.12-.21a.31.31,0,0,1,.11-.09s.07.06.07.1l.11.36v-.11a1.12,1.12,0,0,1,.09-.36c0-.11.14-.14.22,0s.08.16.12.24a.54.54,0,0,0,.06.18l.15-.17.09.15h0l.09-.3v-.08s0,0,0,0h0s0,0,0,.06a.1.1,0,0,0,.17,0,1.34,1.34,0,0,1,.2-.21.19.19,0,0,1,.1-.05v.19c.18-.19.25-.24.37-.26v.26l.11-.14.13-.11.08.35h.12a2.5,2.5,0,0,1-.07-.26c0-.09,0-.17.13-.16v-.18h.13v-.33a.26.26,0,0,1,.09-.18s.11.07.16.11l.09.1.08-.28.34.17a.26.26,0,0,1,.06-.2c.06-.07.06-.11.15-.05l.26.21a.76.76,0,0,1,.07-.19,1,1,0,0,1,.07-.15.87.87,0,0,1,.15.13,1.08,1.08,0,0,1,.08.19l.27-.5h.05l.24.59.08-.11.06,0,.21-.37c.15.22.1.46.15.67l.21-.25.08.18.16-.15h0v.18c0,.07,0,.1.08.1h.22c0,.11-.12.15-.19.19a.18.18,0,0,0-.11.22l0,0,.14-.22h0v.35a.12.12,0,0,0,.15.11c.06,0,.06-.06.06-.1a.68.68,0,0,1,.16-.25c.07-.08.09,0,.11,0a.66.66,0,0,1,.09.19l.09-.12.11-.14.14-.09a.51.51,0,0,1,.09.16,1.09,1.09,0,0,1,0,.25c.27-.21.21-.47.15-.75a.09.09,0,0,0,0-.07c-.28-.27-.57-.55-.86-.81a2.89,2.89,0,0,0-.69-.38,4.11,4.11,0,0,1-.93-.6c-.45-.42-.91-.81-1.37-1.2-.19-.17-.4-.32-.6-.47a3.77,3.77,0,0,0-1.5-.64,1.06,1.06,0,0,1-.39-.13c-.1,0-.09-.1,0-.17l.15-.1-.23-.44.16-.06-.32-.3v0h.49L11.75,20c0-.08-.05-.15.09-.18l.2,0h0c0-.06,0-.09,0-.11l.19,0v0l-.94-.36.27-.23-.22-.18c-.09-.07-.08-.12,0-.15a2.38,2.38,0,0,1,.37-.06l-.17-.21H12l-.14-.23c0-.07,0-.1.06-.12H12l-.27-.61h0l.33.08h.09a.42.42,0,0,1,.38.3h0l.06-.33a.8.8,0,0,1-.3-.48l.24.05h.2c.06,0,.09,0,.11-.07s.08-.14.18,0l.26.23v-.47h0l.31.27a.36.36,0,0,1,.07-.18,1.14,1.14,0,0,1,.1-.19c.07.16.13.29.19.44l.26-.45h.05l.15.32.26-.41a.62.62,0,0,1,0,.5c.16,0,.16,0,.16.14.22-.08.22-.08.22.16a.59.59,0,0,1,.43-.22l-.11.41c.09,0,.09.05.08.12s-.1.4-.14.61v.24a1.35,1.35,0,0,1,.45,0l.42.08h0l-.3.17h.29l0,.15h0s.06-.07.07-.11a.43.43,0,0,0,0-.16v-.15h0l.17.18.08-.13v.28h0l.22-.06a.61.61,0,0,1,.07-.14c.06-.08.09-.08.13,0s.05.16.08.23l.23-.28c.18.1.09.26.14.39.19-.12.19-.12.25,0l.12-.09a.66.66,0,0,1,.21-.08s.07.06.07.09a2,2,0,0,1,0,.35l.14-.05c.07,0,.1,0,.09.09l-.05.15h.05a.94.94,0,0,1,.07-.22c0-.25.06-.5.07-.75,0-.6.07-1.21.07-1.81s.05-.44-.44-.65a3.58,3.58,0,0,0-.75-.31c-.2,0-.2-.06-.17-.24a2.68,2.68,0,0,1-.3-.12c-.1,0-.1-.08,0-.13a1.13,1.13,0,0,1,.21-.12c.05,0,.11-.05.15,0s0,0,.06,0h.35c-.08-.27-.32-.35-.51-.48v0h.55c-.29-.42-.57-.84-.87-1.24a1.31,1.31,0,0,0-.93-.48.34.34,0,0,0-.29.08,2.21,2.21,0,0,1-.34.18v-.27a.94.94,0,0,0-.06-.15v0c-.06-.18-.19-.22-.36-.25l-.46-.14-.14-.07c-.09-.07-.09-.14,0-.19l.3-.11-.25-.18v-.08l.39-.05-.15-.34h0l.21,0c.16,0,.17,0,.13-.13V11.1a1.16,1.16,0,0,1,.48.14l-.08-.41.34.1-.05-.58h0l.32.19v-.27l.27.15L16,9.9l.2.06V9.48a1,1,0,0,1,.5.35V9.59l.29.27.16-.35c-.17-.16-.43-.24-.54-.51H17l-.36-.44H17l-.18-.32h.41l-.18-.34h0l.41.12-.14-.32h0l.48.3V7.77h.12V7.35l.39.14c0-.1,0-.21-.05-.31h.24c0-.14,0-.29.09-.42l.16.19.13-.2c.06-.18.15-.18.26,0l.1.14,0,.06.26-.37h0l.28.53c.09-.14.14-.33.35-.37a1.31,1.31,0,0,0,.09.34l.17-.14s.07-.05.09,0a.14.14,0,0,1,.05.1v.17A2.71,2.71,0,0,1,21,7c.13,0,.15,0,.14.11s0,.2,0,.31l.16,0,0,.3.19-.09V8l.23-.12h0a1.25,1.25,0,0,0-.1,1l.1-.15.13.25.19-.22h0a.83.83,0,0,0,0,.31,1.21,1.21,0,0,1,0,.33l.32-.24,0,.28.27-.17h0v.47H23c.12,0,.14,0,.11.14L23,10.1h.33a.5.5,0,0,1,0,.13l-.15.16.16.14s0,.06,0,.08a.1.1,0,0,1-.08.05H23l.12.24H23a.46.46,0,0,0-.3.08.21.21,0,0,0-.13.2.33.33,0,0,1,0,.14h-.22a.7.7,0,0,0-.26.81l.33-.2a1.69,1.69,0,0,1-.08.34l.39-.25.05.37.36-.06v.44h.15V13a.06.06,0,0,1,0,.06.48.48,0,0,1-.06.18l.21-.06-.08.32.26-.1a.94.94,0,0,1-.57.75h.09l.09.12a.27.27,0,0,1-.06.09.25.25,0,0,1-.11,0l-.4.06-.6.14c-.07,0-.13.08-.2.12v0h.39L22,15h0l.31.07a.32.32,0,0,1-.15.26c-.17.1-.34.21-.52.3l-.69.31-.14.09.35.24v0h-.24a1.79,1.79,0,0,0-.65.08.42.42,0,0,0-.29.24,4.29,4.29,0,0,0-.19.5c-.15.48-.28,1-.42,1.5,0,.12-.07.24-.09.36a12.16,12.16,0,0,0-.1,2.33c0,.6,0,1.18.07,1.77a1,1,0,0,0,0,.34l.06.11a4.7,4.7,0,0,1,.57-.25A4.33,4.33,0,0,1,21.27,23c.46,0,.93,0,1.39-.08a1,1,0,0,0,.56-.19.6.6,0,0,0,.16-.75,1.38,1.38,0,0,0-.27-.27c-.15-.1-.32-.17-.48-.27L21.94,21s-.06-.08-.09-.12l.14-.07h.34a1.59,1.59,0,0,0-.09-.39.52.52,0,0,0-.18-.29c-.06,0,0-.09,0-.11h.12l.05-.21.19.08h0v-.09l.3.07v-.3l.21.05v-.33a.11.11,0,0,1,.05-.09.13.13,0,0,1,.1.05l.12.14,0-.19.23.15,0-.12c0-.08.08-.1.15-.06l.16.13.09.12v-.1A1.09,1.09,0,0,1,24,19.1a.31.31,0,0,1,.14-.12l.12.1.06.1a.71.71,0,0,1,.12-.23c.09-.09.12.06.19.08s.06-.18.1-.26.06-.06.09-.09a.36.36,0,0,1,.07.1V19l.09-.15c.05,0,.09-.09.15,0a.07.07,0,0,0,.09,0,.11.11,0,0,0,.08,0l.1.24.2-.18c.08.15.15.28.23.41L26,19c.06-.08.06-.07.08-.06a.16.16,0,0,1,.09.07.2.2,0,0,1,0,.11.36.36,0,0,0,.06.24.76.76,0,0,1,.53-.09,1.6,1.6,0,0,1,0,.44.61.61,0,0,1,.19,0c.09,0,.12,0,.08.13a2.12,2.12,0,0,1-.11.21h.05c.14,0,.15,0,.08.17l-.17.28.15,0c-.06.2-.25.25-.39.33l.13.26a2.26,2.26,0,0,0-1.09.48c.09,0,.2,0,.23.16H25.8a5.27,5.27,0,0,0-.86.25,3.44,3.44,0,0,0-.86.56,3.37,3.37,0,0,1-.71.53,4,4,0,0,1-.75.27,6.88,6.88,0,0,1-1.5.1,4.3,4.3,0,0,0-1.07.14,1.58,1.58,0,0,0-.68.35.72.72,0,0,0-.19.39h.49c0,.18,0,.18-.19.19l-.3.06a.13.13,0,0,0-.11.14V27l.42,0v.52h.15c.06,0,.09.06,0,.12s-.09.11-.15.14a.39.39,0,0,0-.14.26v.08l.07,1.33h0a3.33,3.33,0,0,1,1.27-.86,7.42,7.42,0,0,1,1.79-.43c.69-.12,1.38-.26,2.06-.41a1.93,1.93,0,0,0,.62-.23,1.19,1.19,0,0,0,.52-1.44L25.6,26l-.31-.13-.08-.06h0l.38.05h0c-.14-.17-.14-.44-.43-.48l.12-.1-.05,0L24.76,25a5.41,5.41,0,0,1-1-.71.52.52,0,0,1-.1-.18l.18-.09h.42a1.08,1.08,0,0,1-.07-.75l.36.14v-.2a2.74,2.74,0,0,1,.05-.28c0-.09.08-.11.15,0l.21.23a.22.22,0,0,1,.07.09,1.28,1.28,0,0,1,.09-.35c0-.1.06-.1.13,0l.17.15a2.44,2.44,0,0,1,.1-.24c.06-.13.11-.13.2,0a1.07,1.07,0,0,0,.16.18.61.61,0,0,1,.05-.12,1.2,1.2,0,0,1,.16-.27c.07-.09.11-.08.17,0a1.83,1.83,0,0,1,.18.3l0-.06s.06-.06.08,0,.1,0,.1.09,0,.07.05.09l.29-.29a.08.08,0,0,1,.13,0l.14.25.15-.21.17.32c.07-.08.12-.21.26-.25L28,23l.12-.21.11.32c.26-.3.3-.34.42-.37v.35c.13,0,.14,0,.13.1v.14l.21-.13c.07,0,.12,0,.14.06a.92.92,0,0,0,.05.25l.26-.23,0,.3.38-.08a1.28,1.28,0,0,1-.21.53h.21l.13.07-.1.1h0l.15.06-.12.14c.18,0,.18,0,.18.17s.25,0,.33.13h0l-.27.18Z"/><path class="cls-1" d="M18.84,0C8.43,0,0,11.74,0,26.23S8.43,52.46,18.84,52.46,37.69,40.71,37.69,26.23,29.23,0,18.84,0Zm0,51.09C9.1,51.09,1.1,40,1.1,26.46S9.06,1.8,18.84,1.8s17.74,11,17.74,24.64-8,24.64-17.74,24.64Z"/></svg>